<svg width="20" height="18" viewBox="0 0 20 18" fill="none" xmlns="http://www.w3.org/2000/svg">
<path d="M17 5.97648C16.3811 5.97822 15.7778 6.17136 15.2729 6.52942C14.7681 6.88748 14.3863 7.39293 14.18 7.97648H1C0.734784 7.97648 0.48043 8.08183 0.292893 8.26937C0.105357 8.45691 0 8.71126 0 8.97648C0 9.24169 0.105357 9.49605 0.292893 9.68358C0.48043 9.87112 0.734784 9.97648 1 9.97648H14.18C14.3635 10.4954 14.6861 10.9538 15.1126 11.3016C15.5392 11.6493 16.0532 11.8731 16.5984 11.9483C17.1435 12.0235 17.6989 11.9473 18.2037 11.7281C18.7085 11.5088 19.1432 11.1549 19.4603 10.7051C19.7775 10.2553 19.9647 9.72689 20.0017 9.17778C20.0386 8.62866 19.9238 8.07997 19.6697 7.59175C19.4157 7.10353 19.0323 6.6946 18.5614 6.4097C18.0905 6.12481 17.5504 5.97493 17 5.97648ZM1 3.97648H2.18C2.3902 4.55563 2.77363 5.05602 3.27817 5.40963C3.7827 5.76325 4.38388 5.95295 5 5.95295C5.61612 5.95295 6.2173 5.76325 6.72184 5.40963C7.22637 5.05602 7.6098 4.55563 7.82 3.97648H19C19.2652 3.97648 19.5196 3.87112 19.7071 3.68358C19.8946 3.49605 20 3.24169 20 2.97648C20 2.71126 19.8946 2.45691 19.7071 2.26937C19.5196 2.08183 19.2652 1.97648 19 1.97648H7.82C7.6098 1.39732 7.22637 0.896937 6.72184 0.543318C6.2173 0.1897 5.61612 0 5 0C4.38388 0 3.7827 0.1897 3.27817 0.543318C2.77363 0.896937 2.3902 1.39732 2.18 1.97648H1C0.734784 1.97648 0.48043 2.08183 0.292893 2.26937C0.105357 2.45691 0 2.71126 0 2.97648C0 3.24169 0.105357 3.49605 0.292893 3.68358C0.48043 3.87112 0.734784 3.97648 1 3.97648ZM19 13.9765H11.82C11.6098 13.3973 11.2264 12.8969 10.7218 12.5433C10.2173 12.1897 9.61612 12 9 12C8.38388 12 7.7827 12.1897 7.27816 12.5433C6.77363 12.8969 6.3902 13.3973 6.18 13.9765H1C0.734784 13.9765 0.48043 14.0818 0.292893 14.2694C0.105357 14.4569 0 14.7113 0 14.9765C0 15.2417 0.105357 15.496 0.292893 15.6836C0.48043 15.8711 0.734784 15.9765 1 15.9765H6.18C6.3902 16.5556 6.77363 17.056 7.27816 17.4096C7.7827 17.7633 8.38388 17.953 9 17.953C9.61612 17.953 10.2173 17.7633 10.7218 17.4096C11.2264 17.056 11.6098 16.5556 11.82 15.9765H19C19.2652 15.9765 19.5196 15.8711 19.7071 15.6836C19.8946 15.496 20 15.2417 20 14.9765C20 14.7113 19.8946 14.4569 19.7071 14.2694C19.5196 14.0818 19.2652 13.9765 19 13.9765Z" fill="#0BC9ED"/>
</svg>
